{
    "asset": {
        "generator": "FBX2glTF v0.9.7",
        "version": "2.0"
    },
    "scene": 0,
    "buffers": [
        {
            "byteLength": 190280,
            "uri": "buffer.bin"
        }
    ],
    "bufferViews": [
        {
            "buffer": 0,
            "byteLength": 96,
            "byteOffset": 0
        },
        {
            "buffer": 0,
            "byteLength": 288,
            "byteOffset": 96
        },
        {
            "buffer": 0,
            "byteLength": 384,
            "byteOffset": 384
        },
        {
            "buffer": 0,
            "byteLength": 384,
            "byteOffset": 768
        },
        {
            "buffer": 0,
            "byteLength": 384,
            "byteOffset": 1152
        },
        {
            "buffer": 0,
            "byteLength": 384,
            "byteOffset": 1536
        },
        {
            "buffer": 0,
            "byteLength": 384,
            "byteOffset": 1920
        },
        {
            "buffer": 0,
            "byteLength": 384,
            "byteOffset": 2304
        },
        {
            "buffer": 0,
            "byteLength": 384,
            "byteOffset": 2688
        },
        {
            "buffer": 0,
            "byteLength": 288,
            "byteOffset": 3072
        },
        {
            "buffer": 0,
            "byteLength": 288,
            "byteOffset": 3360
        },
        {
            "buffer": 0,
            "byteLength": 11736,
            "byteOffset": 3648,
            "target": 34963
        },
        {
            "buffer": 0,
            "byteLength": 37368,
            "byteOffset": 15384,
            "target": 34962
        },
        {
            "buffer": 0,
            "byteLength": 37368,
            "byteOffset": 52752,
            "target": 34962
        },
        {
            "buffer": 0,
            "byteLength": 24912,
            "byteOffset": 90120,
            "target": 34962
        },
        {
            "buffer": 0,
            "byteLength": 24912,
            "byteOffset": 115032,
            "target": 34962
        },
        {
            "buffer": 0,
            "byteLength": 49824,
            "byteOffset": 139944,
            "target": 34962
        },
        {
            "buffer": 0,
            "byteLength": 512,
            "byteOffset": 189768
        }
    ],
    "scenes": [
        {
            "name": "Root Scene",
            "nodes": [
                0
            ]
        }
    ],
    "accessors": [
        {
            "componentType": 5126,
            "type": "SCALAR",
            "count": 24,
            "bufferView": 0,
            "byteOffset": 0,
            "min": [
                0.0
            ],
            "max": [
                0.958333313465118
            ]
        },
        {
            "componentType": 5126,
            "type": "VEC3",
            "count": 24,
            "bufferView": 1,
            "byteOffset": 0
        },
        {
            "componentType": 5126,
            "type": "VEC4",
            "count": 24,
            "bufferView": 2,
            "byteOffset": 0
        },
        {
            "componentType": 5126,
            "type": "VEC4",
            "count": 24,
            "bufferView": 3,
            "byteOffset": 0
        },
        {
            "componentType": 5126,
            "type": "VEC4",
            "count": 24,
            "bufferView": 4,
            "byteOffset": 0
        },
        {
            "componentType": 5126,
            "type": "VEC4",
            "count": 24,
            "bufferView": 5,
            "byteOffset": 0
        },
        {
            "componentType": 5126,
            "type": "VEC4",
            "count": 24,
            "bufferView": 6,
            "byteOffset": 0
        },
        {
            "componentType": 5126,
            "type": "VEC4",
            "count": 24,
            "bufferView": 7,
            "byteOffset": 0
        },
        {
            "componentType": 5126,
            "type": "VEC4",
            "count": 24,
            "bufferView": 8,
            "byteOffset": 0
        },
        {
            "componentType": 5126,
            "type": "VEC3",
            "count": 24,
            "bufferView": 9,
            "byteOffset": 0
        },
        {
            "componentType": 5126,
            "type": "VEC3",
            "count": 24,
            "bufferView": 10,
            "byteOffset": 0
        },
        {
            "componentType": 5123,
            "type": "SCALAR",
            "count": 5868,
            "bufferView": 11,
            "byteOffset": 0
        },
        {
            "componentType": 5126,
            "type": "VEC3",
            "count": 3114,
            "bufferView": 12,
            "byteOffset": 0,
            "min": [
                -0.0106380200013518,
                -0.0286812707781792,
                6.23000005361973e-06
            ],
            "max": [
                0.0106380200013518,
                0.0158278197050095,
                0.0387348495423794
            ]
        },
        {
            "componentType": 5126,
            "type": "VEC3",
            "count": 3114,
            "bufferView": 13,
            "byteOffset": 0
        },
        {
            "componentType": 5126,
            "type": "VEC2",
            "count": 3114,
            "bufferView": 14,
            "byteOffset": 0
        },
        {
            "componentType": 5123,
            "type": "VEC4",
            "count": 3114,
            "bufferView": 15,
            "byteOffset": 0
        },
        {
            "componentType": 5126,
            "type": "VEC4",
            "count": 3114,
            "bufferView": 16,
            "byteOffset": 0
        },
        {
            "componentType": 5126,
            "type": "MAT4",
            "count": 8,
            "bufferView": 17,
            "byteOffset": 0
        }
    ],
    "images": [
        {
            "name": "ChickenbotDiffuse.png",
            "uri": "ChickenbotDiffuse.png"
        }
    ],
    "samplers": [
        {}
    ],
    "textures": [
        {
            "name": "ChickenbotDiffuse_png",
            "sampler": 0,
            "source": 0
        }
    ],
    "materials": [
        {
            "name": "None__ChickenbotDiffuse_png",
            "alphaMode": "BLEND",
            "extras": {
                "fromFBX": {
                    "shadingModel": "Phong",
                    "isTruePBR": false
                }
            },
            "pbrMetallicRoughness": {
                "baseColorTexture": {
                    "index": 0,
                    "texCoord": 0
                },
                "baseColorFactor": [
                    1.0,
                    1.0,
                    1.0,
                    1.0
                ],
                "metallicFactor": 0.400000005960464,
                "roughnessFactor": 0.373978793621063
            }
        }
    ],
    "meshes": [
        {
            "name": "Chickenbot",
            "primitives": [
                {
                    "material": 0,
                    "mode": 4,
                    "attributes": {
                        "JOINTS_0": 15,
                        "NORMAL": 13,
                        "POSITION": 12,
                        "TEXCOORD_0": 14,
                        "WEIGHTS_0": 16
                    },
                    "indices": 11
                }
            ]
        }
    ],
    "skins": [
        {
            "joints": [
                4,
                8,
                9,
                10,
                5,
                6,
                7,
                11
            ],
            "inverseBindMatrices": 17,
            "skeleton": 4
        }
    ],
    "animations": [
        {
            "name": "Take 001",
            "channels": [
                {
                    "sampler": 0,
                    "target": {
                        "node": 4,
                        "path": "translation"
                    }
                },
                {
                    "sampler": 1,
                    "target": {
                        "node": 4,
                        "path": "rotation"
                    }
                },
                {
                    "sampler": 2,
                    "target": {
                        "node": 5,
                        "path": "rotation"
                    }
                },
                {
                    "sampler": 3,
                    "target": {
                        "node": 6,
                        "path": "rotation"
                    }
                },
                {
                    "sampler": 4,
                    "target": {
                        "node": 7,
                        "path": "rotation"
                    }
                },
                {
                    "sampler": 5,
                    "target": {
                        "node": 8,
                        "path": "rotation"
                    }
                },
                {
                    "sampler": 6,
                    "target": {
                        "node": 9,
                        "path": "rotation"
                    }
                },
                {
                    "sampler": 7,
                    "target": {
                        "node": 10,
                        "path": "rotation"
                    }
                },
                {
                    "sampler": 8,
                    "target": {
                        "node": 13,
                        "path": "translation"
                    }
                },
                {
                    "sampler": 9,
                    "target": {
                        "node": 14,
                        "path": "translation"
                    }
                }
            ],
            "samplers": [
                {
                    "input": 0,
                    "interpolation": "LINEAR",
                    "output": 1
                },
                {
                    "input": 0,
                    "interpolation": "LINEAR",
                    "output": 2
                },
                {
                    "input": 0,
                    "interpolation": "LINEAR",
                    "output": 3
                },
                {
                    "input": 0,
                    "interpolation": "LINEAR",
                    "output": 4
                },
                {
                    "input": 0,
                    "interpolation": "LINEAR",
                    "output": 5
                },
                {
                    "input": 0,
                    "interpolation": "LINEAR",
                    "output": 6
                },
                {
                    "input": 0,
                    "interpolation": "LINEAR",
                    "output": 7
                },
                {
                    "input": 0,
                    "interpolation": "LINEAR",
                    "output": 8
                },
                {
                    "input": 0,
                    "interpolation": "LINEAR",
                    "output": 9
                },
                {
                    "input": 0,
                    "interpolation": "LINEAR",
                    "output": 10
                }
            ]
        }
    ],
    "nodes": [
        {
            "name": "RootNode",
            "translation": [
                0.0,
                0.0,
                0.0
            ],
            "rotation": [
                0.0,
                0.0,
                0.0,
                1.0
            ],
            "scale": [
                1.0,
                1.0,
                1.0
            ],
            "children": [
                1,
                2
            ]
        },
        {
            "name": "Chickenbot",
            "translation": [
                0.0,
                0.0,
                0.0
            ],
            "rotation": [
                2.1855694143369e-08,
                0.0,
                0.0,
                1.0
            ],
            "scale": [
                1.0,
                1.0,
                1.0
            ],
            "mesh": 0,
            "skin": 0
        },
        {
            "name": "chicken_rig",
            "translation": [
                0.0,
                0.0,
                0.0
            ],
            "rotation": [
                -0.70710676908493,
                -0.0,
                0.0,
                0.70710676908493
            ],
            "scale": [
                1.0,
                1.0,
                1.0
            ],
            "children": [
                3
            ]
        },
        {
            "name": "root",
            "translation": [
                0.0,
                0.0,
                0.0
            ],
            "rotation": [
                0.50000011920929,
                -0.49999988079071,
                0.5,
                0.499999970197678
            ],
            "scale": [
                1.0,
                1.0,
                1.0
            ],
            "children": [
                4,
                12
            ]
        },
        {
            "name": "Bone",
            "translation": [
                0.0290459264069796,
                0.000595250283367932,
                3.86762026597336e-17
            ],
            "rotation": [
                3.32236904654337e-10,
                -0.0135803762823343,
                0.0166254229843616,
                0.999769568443298
            ],
            "scale": [
                1.0,
                1.0,
                1.0
            ],
            "children": [
                5,
                8,
                11
            ]
        },
        {
            "name": "Bone_L",
            "translation": [
                2.98261638818076e-05,
                -0.00856776442378759,
                0.000246769865043461
            ],
            "rotation": [
                0.0646865218877792,
                0.714036703109741,
                0.696910381317139,
                0.0168263949453831
            ],
            "scale": [
                1.0,
                1.0,
                1.0
            ],
            "children": [
                6
            ]
        },
        {
            "name": "Bone_L_001",
            "translation": [
                0.0159017276018858,
                1.19209286886246e-09,
                -1.19209286886246e-09
            ],
            "rotation": [
                -0.614957988262177,
                -0.349036991596222,
                0.349037379026413,
                0.614957511425018
            ],
            "scale": [
                1.0,
                1.0,
                1.0
            ],
            "children": [
                7
            ]
        },
        {
            "name": "Bone_L_002",
            "translation": [
                0.0143086761236191,
                1.78813930329369e-09,
                0.0
            ],
            "rotation": [
                0.858792245388031,
                0.0417004078626633,
                -0.510526120662689,
                -0.0100003993138671
            ],
            "scale": [
                1.0,
                1.0,
                1.0
            ]
        },
        {
            "name": "Bone_R",
            "translation": [
                2.98285485769156e-05,
                0.00856776535511017,
                0.000246764131588861
            ],
            "rotation": [
                0.289341449737549,
                0.634752094745636,
                -0.620607614517212,
                0.358074635267258
            ],
            "scale": [
                1.0,
                1.0,
                1.0
            ],
            "children": [
                9
            ]
        },
        {
            "name": "Bone_R_001",
            "translation": [
                0.0159017238765955,
                2.38418573772492e-09,
                -5.9604643443123e-10
            ],
            "rotation": [
                0.636550843715668,
                -0.307901382446289,
                -0.307901829481125,
                0.63655024766922
            ],
            "scale": [
                1.0,
                1.0,
                1.0
            ],
            "children": [
                10
            ]
        },
        {
            "name": "Bone_R_002",
            "translation": [
                0.0143086742609739,
                0.0,
                0.0
            ],
            "rotation": [
                0.997063100337982,
                -0.0645298808813095,
                0.0393413938581944,
                0.0123847266659141
            ],
            "scale": [
                0.999998986721039,
                1.0,
                1.0
            ]
        },
        {
            "name": "Bone_001",
            "translation": [
                0.00364908925257623,
                9.68575442072961e-10,
                0.00299031124450266
            ],
            "rotation": [
                0.70710688829422,
                1.38294339535605e-07,
                0.707106649875641,
                -1.38294382168169e-07
            ],
            "scale": [
                1.0,
                1.0,
                1.0
            ]
        },
        {
            "name": "ik_root",
            "translation": [
                -2.38418573772492e-09,
                -1.79999980535916e-16,
                -8.07793548890723e-30
            ],
            "rotation": [
                1.42108496330043e-14,
                -1.02921660116867e-28,
                -7.105427357601e-15,
                1.0
            ],
            "scale": [
                1.0,
                1.0,
                1.0
            ],
            "children": [
                13,
                14
            ]
        },
        {
            "name": "ikTarget_R",
            "translation": [
                0.0058781486004591,
                0.00577946333214641,
                -0.014038935303688
            ],
            "rotation": [
                -2.6692557497654e-08,
                0.707106649875641,
                2.66925503922266e-08,
                0.70710688829422
            ],
            "scale": [
                1.0,
                1.0,
                1.0
            ]
        },
        {
            "name": "ikTarget_L",
            "translation": [
                0.00671876966953278,
                -0.00577165279537439,
                0.0134326117113233
            ],
            "rotation": [
                -2.6692557497654e-08,
                0.707106649875641,
                2.66925503922266e-08,
                0.70710688829422
            ],
            "scale": [
                1.0,
                1.0,
                1.0
            ]
        }
    ]
}